# File produced by Open Asset Import Library (http://www.assimp.sf.net)
# (assimp v3.1.128981410)

mtllib Wall_1x4.mtl

# vertex positions
v 2.648949 0.000000 40.122665
v 2.648949 0.000000 20.437628
v 7.573910 0.000000 20.437628
v 7.573910 0.000000 40.122665
v 12.498871 0.000000 20.437628
v 12.498871 0.000000 40.122665
v 2.648949 0.000000 0.752588
v 7.573910 0.000000 0.752588
v 12.498871 0.000000 0.752588
v 2.648949 157.480316 40.122665
v 7.573910 157.480316 40.122665
v 7.573910 158.482666 20.437628
v 2.648949 158.482666 20.437628
v 12.498871 157.480316 40.122665
v 12.498871 158.482666 20.437628
v 7.573910 157.480316 0.752588
v 2.648949 157.480316 0.752588
v 12.498871 157.480316 0.752588
v 7.573910 78.740158 40.122665
v 2.648949 78.740158 40.122665
v 12.498871 78.740158 40.122665
v 12.498871 78.740158 20.437628
v 12.498871 78.740158 0.752588
v 7.573910 78.740158 0.752588
v 2.648949 78.740158 0.752588
v 2.648949 78.740158 20.437628

# UV coordinates
vt 0.663363 0.803294
vt 0.706540 0.856066
vt 0.701263 0.860384
vt 0.658086 0.807612
vt 0.695986 0.864702
vt 0.652809 0.811930
vt 0.749718 0.908838
vt 0.744440 0.913155
vt 0.739163 0.917473
vt 0.521519 0.575361
vt 0.526796 0.579680
vt 0.483557 0.632514
vt 0.478280 0.628196
vt 0.532073 0.583998
vt 0.488833 0.636833
vt 0.440316 0.685348
vt 0.435040 0.681030
vt 0.445593 0.689667
vt 0.395938 0.575361
vt 0.400877 0.580060
vt 0.212916 0.777661
vt 0.207976 0.772962
vt 0.405817 0.584759
vt 0.217856 0.782360
vt 0.024941 0.975301
vt 0.020000 0.970602
vt 0.029882 0.980000
vt 0.300645 0.020000
vt 0.359112 0.055081
vt 0.218790 0.288951
vt 0.160322 0.253870
vt 0.417580 0.090161
vt 0.277258 0.324032
vt 0.076681 0.525798
vt 0.020000 0.487740
vt 0.136935 0.557902
vt 0.810977 0.575361
vt 0.815917 0.580060
vt 0.627956 0.777661
vt 0.623015 0.772962
vt 0.820857 0.584759
vt 0.632896 0.782360
vt 0.439980 0.975301
vt 0.435040 0.970602
vt 0.444921 0.980000
vt 0.715684 0.020000
vt 0.774152 0.055081
vt 0.633830 0.288951
vt 0.575362 0.253870
vt 0.832619 0.090161
vt 0.692297 0.324032
vt 0.491721 0.525798
vt 0.435040 0.487740
vt 0.551975 0.557902

# vertex normals
vn 0.000000 -1.000000 -0.000000
vn 0.000000 0.998706 0.050853
vn 0.000000 1.000000 0.000000
vn 0.000000 0.998706 -0.050853
vn 0.000000 -0.000000 1.000000
vn 1.000000 0.000000 0.000000
vn 0.000000 0.000000 -1.000000
vn -1.000000 0.000000 0.000000

# Mesh
g 1x4 Modulo Referencia
usemtl DefaultMaterial
f 4/4/1 1/1/1 2/2/1
f 2/2/1 3/3/1 4/4/1
f 6/6/1 4/4/1 3/3/1
f 3/3/1 5/5/1 6/6/1
f 3/3/1 2/2/1 7/7/1
f 7/7/1 8/8/1 3/3/1
f 5/5/1 3/3/1 8/8/1
f 8/8/1 9/9/1 5/5/1
f 13/13/3 10/10/2 11/11/2
f 11/11/2 12/12/3 13/13/3
f 12/12/3 11/11/2 14/14/2
f 14/14/2 15/15/3 12/12/3
f 17/17/4 13/13/3 12/12/3
f 12/12/3 16/16/4 17/17/4
f 16/16/4 12/12/3 15/15/3
f 15/15/3 18/18/4 16/16/4
f 20/22/5 1/19/5 4/20/5
f 4/20/5 19/21/5 20/22/5
f 19/21/5 4/20/5 6/23/5
f 6/23/5 21/24/5 19/21/5
f 10/26/5 20/22/5 19/21/5
f 19/21/5 11/25/5 10/26/5
f 11/25/5 19/21/5 21/24/5
f 21/24/5 14/27/5 11/25/5
f 21/31/6 6/28/6 5/29/6
f 5/29/6 22/30/6 21/31/6
f 22/30/6 5/29/6 9/32/6
f 9/32/6 23/33/6 22/30/6
f 14/35/6 21/31/6 22/30/6
f 22/30/6 15/34/6 14/35/6
f 15/34/6 22/30/6 23/33/6
f 23/33/6 18/36/6 15/34/6
f 23/40/7 9/37/7 8/38/7
f 8/38/7 24/39/7 23/40/7
f 24/39/7 8/38/7 7/41/7
f 7/41/7 25/42/7 24/39/7
f 18/44/7 23/40/7 24/39/7
f 24/39/7 16/43/7 18/44/7
f 16/43/7 24/39/7 25/42/7
f 25/42/7 17/45/7 16/43/7
f 25/49/8 7/46/8 2/47/8
f 2/47/8 26/48/8 25/49/8
f 26/48/8 2/47/8 1/50/8
f 1/50/8 20/51/8 26/48/8
f 17/53/8 25/49/8 26/48/8
f 26/48/8 13/52/8 17/53/8
f 13/52/8 26/48/8 20/51/8
f 20/51/8 10/54/8 13/52/8
